<mxfile host="app.diagrams.net" agent="Mozilla/5.0 (Windows NT 10.0; Win64; x64) AppleWebKit/537.36 (KHTML, like Gecko) Chrome/133.0.0.0 Safari/537.36 Edg/133.0.0.0" version="26.0.8">
  <diagram name="第 1 页" id="baCguKlF4RsAUoRSOUFy">
    <mxGraphModel dx="784" dy="1181" grid="1" gridSize="10" guides="1" tooltips="1" connect="1" arrows="1" fold="1" page="1" pageScale="1" pageWidth="827" pageHeight="1169" math="0" shadow="0">
      <root>
        <mxCell id="0" />
        <mxCell id="1" parent="0" />
        <mxCell id="Y0yDzkj-o2-V9cJ9AFSL-1" value="&lt;h2&gt;一阶段&lt;/h2&gt;" style="text;html=1;align=center;verticalAlign=middle;resizable=0;points=[];autosize=1;strokeColor=none;fillColor=none;fontColor=#7EA6E0;" vertex="1" parent="1">
          <mxGeometry x="10" y="120" width="80" height="60" as="geometry" />
        </mxCell>
        <mxCell id="Y0yDzkj-o2-V9cJ9AFSL-6" value="" style="edgeStyle=orthogonalEdgeStyle;rounded=0;orthogonalLoop=1;jettySize=auto;html=1;" edge="1" parent="1" source="Y0yDzkj-o2-V9cJ9AFSL-2" target="Y0yDzkj-o2-V9cJ9AFSL-5">
          <mxGeometry relative="1" as="geometry" />
        </mxCell>
        <mxCell id="Y0yDzkj-o2-V9cJ9AFSL-2" value="mask" style="whiteSpace=wrap;html=1;aspect=fixed;" vertex="1" parent="1">
          <mxGeometry x="20" y="227" width="80" height="80" as="geometry" />
        </mxCell>
        <mxCell id="Y0yDzkj-o2-V9cJ9AFSL-9" style="edgeStyle=orthogonalEdgeStyle;rounded=0;orthogonalLoop=1;jettySize=auto;html=1;exitX=1;exitY=0.5;exitDx=0;exitDy=0;entryX=0;entryY=0.5;entryDx=0;entryDy=0;" edge="1" parent="1" source="Y0yDzkj-o2-V9cJ9AFSL-4" target="Y0yDzkj-o2-V9cJ9AFSL-8">
          <mxGeometry relative="1" as="geometry" />
        </mxCell>
        <mxCell id="Y0yDzkj-o2-V9cJ9AFSL-4" value="image" style="whiteSpace=wrap;html=1;aspect=fixed;" vertex="1" parent="1">
          <mxGeometry x="20" y="337" width="80" height="80" as="geometry" />
        </mxCell>
        <mxCell id="Y0yDzkj-o2-V9cJ9AFSL-11" style="edgeStyle=orthogonalEdgeStyle;rounded=0;orthogonalLoop=1;jettySize=auto;html=1;" edge="1" parent="1" source="Y0yDzkj-o2-V9cJ9AFSL-5">
          <mxGeometry relative="1" as="geometry">
            <mxPoint x="220" y="377" as="targetPoint" />
          </mxGeometry>
        </mxCell>
        <mxCell id="Y0yDzkj-o2-V9cJ9AFSL-13" value="" style="edgeStyle=orthogonalEdgeStyle;rounded=0;orthogonalLoop=1;jettySize=auto;html=1;" edge="1" parent="1" source="Y0yDzkj-o2-V9cJ9AFSL-5" target="Y0yDzkj-o2-V9cJ9AFSL-12">
          <mxGeometry relative="1" as="geometry" />
        </mxCell>
        <mxCell id="Y0yDzkj-o2-V9cJ9AFSL-5" value="实例id以及&lt;div&gt;对应的边界框&lt;/div&gt;" style="whiteSpace=wrap;html=1;" vertex="1" parent="1">
          <mxGeometry x="160" y="237" width="120" height="60" as="geometry" />
        </mxCell>
        <mxCell id="Y0yDzkj-o2-V9cJ9AFSL-15" value="" style="edgeStyle=orthogonalEdgeStyle;rounded=0;orthogonalLoop=1;jettySize=auto;html=1;" edge="1" parent="1" source="Y0yDzkj-o2-V9cJ9AFSL-8" target="Y0yDzkj-o2-V9cJ9AFSL-14">
          <mxGeometry relative="1" as="geometry" />
        </mxCell>
        <mxCell id="Y0yDzkj-o2-V9cJ9AFSL-8" value="裁剪图像" style="rounded=1;whiteSpace=wrap;html=1;" vertex="1" parent="1">
          <mxGeometry x="354" y="347" width="120" height="60" as="geometry" />
        </mxCell>
        <mxCell id="Y0yDzkj-o2-V9cJ9AFSL-17" value="" style="edgeStyle=orthogonalEdgeStyle;rounded=0;orthogonalLoop=1;jettySize=auto;html=1;" edge="1" parent="1" source="Y0yDzkj-o2-V9cJ9AFSL-12" target="Y0yDzkj-o2-V9cJ9AFSL-16">
          <mxGeometry relative="1" as="geometry" />
        </mxCell>
        <mxCell id="Y0yDzkj-o2-V9cJ9AFSL-12" value="裁剪 mask" style="rounded=1;whiteSpace=wrap;html=1;" vertex="1" parent="1">
          <mxGeometry x="354" y="237" width="120" height="60" as="geometry" />
        </mxCell>
        <mxCell id="Y0yDzkj-o2-V9cJ9AFSL-19" value="" style="edgeStyle=orthogonalEdgeStyle;rounded=0;orthogonalLoop=1;jettySize=auto;html=1;" edge="1" parent="1" source="Y0yDzkj-o2-V9cJ9AFSL-14" target="Y0yDzkj-o2-V9cJ9AFSL-18">
          <mxGeometry relative="1" as="geometry" />
        </mxCell>
        <mxCell id="Y0yDzkj-o2-V9cJ9AFSL-14" value="MIS 方法得到 Tree" style="rounded=1;whiteSpace=wrap;html=1;" vertex="1" parent="1">
          <mxGeometry x="354" y="487" width="120" height="60" as="geometry" />
        </mxCell>
        <mxCell id="Y0yDzkj-o2-V9cJ9AFSL-20" style="edgeStyle=orthogonalEdgeStyle;rounded=0;orthogonalLoop=1;jettySize=auto;html=1;entryX=0.5;entryY=0;entryDx=0;entryDy=0;" edge="1" parent="1" source="Y0yDzkj-o2-V9cJ9AFSL-16" target="Y0yDzkj-o2-V9cJ9AFSL-18">
          <mxGeometry relative="1" as="geometry" />
        </mxCell>
        <mxCell id="Y0yDzkj-o2-V9cJ9AFSL-16" value="计算 center_point" style="whiteSpace=wrap;html=1;rounded=1;" vertex="1" parent="1">
          <mxGeometry x="554" y="237" width="120" height="60" as="geometry" />
        </mxCell>
        <mxCell id="Y0yDzkj-o2-V9cJ9AFSL-18" value="保存Tree 边界框 中心点等作为伪掩码" style="whiteSpace=wrap;html=1;rounded=1;" vertex="1" parent="1">
          <mxGeometry x="554" y="487" width="120" height="60" as="geometry" />
        </mxCell>
        <mxCell id="Y0yDzkj-o2-V9cJ9AFSL-21" value="&lt;h4&gt;&lt;font style=&quot;font-size: 16px;&quot;&gt;伪掩码&lt;/font&gt;&lt;/h4&gt;" style="text;html=1;align=center;verticalAlign=middle;resizable=0;points=[];autosize=1;strokeColor=none;fillColor=none;" vertex="1" parent="1">
          <mxGeometry x="15" y="167" width="70" height="60" as="geometry" />
        </mxCell>
        <mxCell id="Y0yDzkj-o2-V9cJ9AFSL-22" value="&lt;h4&gt;&lt;span style=&quot;font-size: 16px;&quot;&gt;非迭代式训练&lt;/span&gt;&lt;/h4&gt;" style="text;html=1;align=center;verticalAlign=middle;resizable=0;points=[];autosize=1;strokeColor=none;fillColor=none;" vertex="1" parent="1">
          <mxGeometry x="20" y="555" width="120" height="60" as="geometry" />
        </mxCell>
        <mxCell id="Y0yDzkj-o2-V9cJ9AFSL-25" value="" style="edgeStyle=orthogonalEdgeStyle;rounded=0;orthogonalLoop=1;jettySize=auto;html=1;" edge="1" parent="1" source="Y0yDzkj-o2-V9cJ9AFSL-34" target="Y0yDzkj-o2-V9cJ9AFSL-24">
          <mxGeometry relative="1" as="geometry" />
        </mxCell>
        <mxCell id="Y0yDzkj-o2-V9cJ9AFSL-23" value="加载伪掩码" style="rounded=1;whiteSpace=wrap;html=1;" vertex="1" parent="1">
          <mxGeometry x="30" y="630" width="120" height="60" as="geometry" />
        </mxCell>
        <mxCell id="Y0yDzkj-o2-V9cJ9AFSL-27" value="" style="edgeStyle=orthogonalEdgeStyle;rounded=0;orthogonalLoop=1;jettySize=auto;html=1;" edge="1" parent="1" source="Y0yDzkj-o2-V9cJ9AFSL-24" target="Y0yDzkj-o2-V9cJ9AFSL-26">
          <mxGeometry relative="1" as="geometry" />
        </mxCell>
        <mxCell id="Y0yDzkj-o2-V9cJ9AFSL-24" value="分别读取左子树和右子树" style="whiteSpace=wrap;html=1;rounded=1;" vertex="1" parent="1">
          <mxGeometry x="320" y="630" width="120" height="60" as="geometry" />
        </mxCell>
        <mxCell id="Y0yDzkj-o2-V9cJ9AFSL-29" value="" style="edgeStyle=orthogonalEdgeStyle;rounded=0;orthogonalLoop=1;jettySize=auto;html=1;" edge="1" parent="1" source="Y0yDzkj-o2-V9cJ9AFSL-26" target="Y0yDzkj-o2-V9cJ9AFSL-28">
          <mxGeometry relative="1" as="geometry" />
        </mxCell>
        <mxCell id="Y0yDzkj-o2-V9cJ9AFSL-26" value="根据中心点位置选择子树" style="whiteSpace=wrap;html=1;rounded=1;" vertex="1" parent="1">
          <mxGeometry x="474" y="630" width="120" height="60" as="geometry" />
        </mxCell>
        <mxCell id="Y0yDzkj-o2-V9cJ9AFSL-41" style="edgeStyle=orthogonalEdgeStyle;rounded=0;orthogonalLoop=1;jettySize=auto;html=1;entryX=1;entryY=0.5;entryDx=0;entryDy=0;" edge="1" parent="1" source="Y0yDzkj-o2-V9cJ9AFSL-28" target="Y0yDzkj-o2-V9cJ9AFSL-38">
          <mxGeometry relative="1" as="geometry">
            <Array as="points">
              <mxPoint x="690" y="760" />
            </Array>
          </mxGeometry>
        </mxCell>
        <mxCell id="Y0yDzkj-o2-V9cJ9AFSL-28" value="将边界框外的位置对应的元素设为 0" style="whiteSpace=wrap;html=1;rounded=1;" vertex="1" parent="1">
          <mxGeometry x="630" y="630" width="120" height="60" as="geometry" />
        </mxCell>
        <mxCell id="Y0yDzkj-o2-V9cJ9AFSL-32" value="" style="edgeStyle=orthogonalEdgeStyle;rounded=0;orthogonalLoop=1;jettySize=auto;html=1;" edge="1" parent="1" source="Y0yDzkj-o2-V9cJ9AFSL-30" target="Y0yDzkj-o2-V9cJ9AFSL-31">
          <mxGeometry relative="1" as="geometry" />
        </mxCell>
        <mxCell id="Y0yDzkj-o2-V9cJ9AFSL-30" value="图像" style="rounded=1;whiteSpace=wrap;html=1;" vertex="1" parent="1">
          <mxGeometry x="30" y="730" width="120" height="60" as="geometry" />
        </mxCell>
        <mxCell id="Y0yDzkj-o2-V9cJ9AFSL-39" value="" style="edgeStyle=orthogonalEdgeStyle;rounded=0;orthogonalLoop=1;jettySize=auto;html=1;" edge="1" parent="1" source="Y0yDzkj-o2-V9cJ9AFSL-31" target="Y0yDzkj-o2-V9cJ9AFSL-38">
          <mxGeometry relative="1" as="geometry" />
        </mxCell>
        <mxCell id="Y0yDzkj-o2-V9cJ9AFSL-31" value="根据边界框裁剪图像" style="whiteSpace=wrap;html=1;rounded=1;" vertex="1" parent="1">
          <mxGeometry x="190" y="730" width="120" height="60" as="geometry" />
        </mxCell>
        <mxCell id="Y0yDzkj-o2-V9cJ9AFSL-35" value="" style="edgeStyle=orthogonalEdgeStyle;rounded=0;orthogonalLoop=1;jettySize=auto;html=1;" edge="1" parent="1" source="Y0yDzkj-o2-V9cJ9AFSL-23" target="Y0yDzkj-o2-V9cJ9AFSL-34">
          <mxGeometry relative="1" as="geometry">
            <mxPoint x="150" y="660" as="sourcePoint" />
            <mxPoint x="310" y="660" as="targetPoint" />
          </mxGeometry>
        </mxCell>
        <mxCell id="Y0yDzkj-o2-V9cJ9AFSL-34" value="随机选择一个实例" style="whiteSpace=wrap;html=1;rounded=1;" vertex="1" parent="1">
          <mxGeometry x="170" y="630" width="120" height="60" as="geometry" />
        </mxCell>
        <mxCell id="Y0yDzkj-o2-V9cJ9AFSL-43" value="" style="edgeStyle=orthogonalEdgeStyle;rounded=0;orthogonalLoop=1;jettySize=auto;html=1;" edge="1" parent="1" source="Y0yDzkj-o2-V9cJ9AFSL-38" target="Y0yDzkj-o2-V9cJ9AFSL-42">
          <mxGeometry relative="1" as="geometry" />
        </mxCell>
        <mxCell id="Y0yDzkj-o2-V9cJ9AFSL-38" value="DSample" style="ellipse;whiteSpace=wrap;html=1;rounded=1;" vertex="1" parent="1">
          <mxGeometry x="410" y="720" width="80" height="80" as="geometry" />
        </mxCell>
        <mxCell id="Y0yDzkj-o2-V9cJ9AFSL-45" value="" style="edgeStyle=orthogonalEdgeStyle;rounded=0;orthogonalLoop=1;jettySize=auto;html=1;" edge="1" parent="1" source="Y0yDzkj-o2-V9cJ9AFSL-42" target="Y0yDzkj-o2-V9cJ9AFSL-44">
          <mxGeometry relative="1" as="geometry" />
        </mxCell>
        <mxCell id="Y0yDzkj-o2-V9cJ9AFSL-42" value="采样点击，dios=True" style="whiteSpace=wrap;html=1;rounded=1;" vertex="1" parent="1">
          <mxGeometry x="390" y="850" width="120" height="60" as="geometry" />
        </mxCell>
        <mxCell id="Y0yDzkj-o2-V9cJ9AFSL-44" value="随机选择5个正点击和10个点击进行非迭代式训练" style="whiteSpace=wrap;html=1;rounded=1;spacing=0;align=center;" vertex="1" parent="1">
          <mxGeometry x="590" y="850" width="120" height="60" as="geometry" />
        </mxCell>
        <mxCell id="Y0yDzkj-o2-V9cJ9AFSL-46" value="&lt;h2&gt;二阶段&lt;/h2&gt;" style="text;html=1;align=center;verticalAlign=middle;resizable=0;points=[];autosize=1;strokeColor=none;fillColor=none;fontColor=#7EA6E0;" vertex="1" parent="1">
          <mxGeometry x="20" y="920" width="80" height="60" as="geometry" />
        </mxCell>
        <mxCell id="Y0yDzkj-o2-V9cJ9AFSL-47" value="&lt;h4&gt;&lt;font style=&quot;font-size: 16px;&quot;&gt;伪掩码&lt;/font&gt;&lt;/h4&gt;" style="text;html=1;align=center;verticalAlign=middle;resizable=0;points=[];autosize=1;strokeColor=none;fillColor=none;" vertex="1" parent="1">
          <mxGeometry x="25" y="967" width="70" height="60" as="geometry" />
        </mxCell>
        <mxCell id="Y0yDzkj-o2-V9cJ9AFSL-50" value="" style="edgeStyle=orthogonalEdgeStyle;rounded=0;orthogonalLoop=1;jettySize=auto;html=1;" edge="1" parent="1" source="Y0yDzkj-o2-V9cJ9AFSL-48" target="Y0yDzkj-o2-V9cJ9AFSL-49">
          <mxGeometry relative="1" as="geometry" />
        </mxCell>
        <mxCell id="Y0yDzkj-o2-V9cJ9AFSL-48" value="根据边界框裁剪图像和掩码" style="rounded=1;whiteSpace=wrap;html=1;" vertex="1" parent="1">
          <mxGeometry x="30" y="1030" width="120" height="60" as="geometry" />
        </mxCell>
        <mxCell id="Y0yDzkj-o2-V9cJ9AFSL-52" value="" style="edgeStyle=orthogonalEdgeStyle;rounded=0;orthogonalLoop=1;jettySize=auto;html=1;" edge="1" parent="1" source="Y0yDzkj-o2-V9cJ9AFSL-49" target="Y0yDzkj-o2-V9cJ9AFSL-51">
          <mxGeometry relative="1" as="geometry" />
        </mxCell>
        <mxCell id="Y0yDzkj-o2-V9cJ9AFSL-49" value="采样点击，dios=True" style="whiteSpace=wrap;html=1;rounded=1;" vertex="1" parent="1">
          <mxGeometry x="180" y="1030" width="120" height="60" as="geometry" />
        </mxCell>
        <mxCell id="Y0yDzkj-o2-V9cJ9AFSL-54" value="" style="edgeStyle=orthogonalEdgeStyle;rounded=0;orthogonalLoop=1;jettySize=auto;html=1;" edge="1" parent="1" source="Y0yDzkj-o2-V9cJ9AFSL-51" target="Y0yDzkj-o2-V9cJ9AFSL-53">
          <mxGeometry relative="1" as="geometry" />
        </mxCell>
        <mxCell id="Y0yDzkj-o2-V9cJ9AFSL-51" value="随机选择5个正样本点和10个负样本点" style="whiteSpace=wrap;html=1;rounded=1;" vertex="1" parent="1">
          <mxGeometry x="330" y="1030" width="120" height="60" as="geometry" />
        </mxCell>
        <mxCell id="Y0yDzkj-o2-V9cJ9AFSL-56" value="" style="edgeStyle=orthogonalEdgeStyle;rounded=0;orthogonalLoop=1;jettySize=auto;html=1;" edge="1" parent="1" source="Y0yDzkj-o2-V9cJ9AFSL-53" target="Y0yDzkj-o2-V9cJ9AFSL-55">
          <mxGeometry relative="1" as="geometry" />
        </mxCell>
        <mxCell id="Y0yDzkj-o2-V9cJ9AFSL-53" value="将中心点作为正点击&lt;div&gt;边界框左上角和右下角作为负点击&lt;/div&gt;" style="rounded=1;whiteSpace=wrap;html=1;" vertex="1" parent="1">
          <mxGeometry x="474" y="1030" width="120" height="60" as="geometry" />
        </mxCell>
        <mxCell id="Y0yDzkj-o2-V9cJ9AFSL-58" value="" style="edgeStyle=orthogonalEdgeStyle;rounded=0;orthogonalLoop=1;jettySize=auto;html=1;" edge="1" parent="1" source="Y0yDzkj-o2-V9cJ9AFSL-55" target="Y0yDzkj-o2-V9cJ9AFSL-57">
          <mxGeometry relative="1" as="geometry" />
        </mxCell>
        <mxCell id="Y0yDzkj-o2-V9cJ9AFSL-55" value="输入模型" style="whiteSpace=wrap;html=1;rounded=1;" vertex="1" parent="1">
          <mxGeometry x="620" y="1030" width="120" height="60" as="geometry" />
        </mxCell>
        <mxCell id="Y0yDzkj-o2-V9cJ9AFSL-57" value="生成伪掩码" style="whiteSpace=wrap;html=1;rounded=1;" vertex="1" parent="1">
          <mxGeometry x="770" y="1030" width="120" height="60" as="geometry" />
        </mxCell>
        <mxCell id="Y0yDzkj-o2-V9cJ9AFSL-60" value="&lt;h4&gt;&lt;span style=&quot;font-size: 16px;&quot;&gt;迭代式训练&lt;/span&gt;&lt;/h4&gt;" style="text;html=1;align=center;verticalAlign=middle;resizable=0;points=[];autosize=1;strokeColor=none;fillColor=none;" vertex="1" parent="1">
          <mxGeometry x="35" y="1109" width="100" height="60" as="geometry" />
        </mxCell>
        <mxCell id="Y0yDzkj-o2-V9cJ9AFSL-63" value="正常的 RITM 训练" style="text;html=1;align=center;verticalAlign=middle;resizable=0;points=[];autosize=1;strokeColor=none;fillColor=none;" vertex="1" parent="1">
          <mxGeometry x="135" y="1128" width="120" height="30" as="geometry" />
        </mxCell>
      </root>
    </mxGraphModel>
  </diagram>
</mxfile>
